<svg width="265" height="254" viewBox="0 0 265 254" fill="none" xmlns="http://www.w3.org/2000/svg">
<g filter="url(#filter0_f_177_2)">
<ellipse cx="136.96" cy="120.921" rx="104.847" ry="107.258" fill="#FCC916"/>
</g>
<g filter="url(#filter1_f_177_2)">
<path d="M170.651 60.2559L191.834 116.903H260.382L204.926 151.913L226.108 208.56L170.651 173.55L115.195 208.56L136.377 151.913L80.9205 116.903H149.469L170.651 60.2559Z" fill="url(#paint0_diamond_177_2)"/>
</g>
<g filter="url(#filter2_f_177_2)">
<path d="M94.3487 71L115.531 127.647H184.08L128.623 162.657L149.805 219.304L94.3487 184.294L38.8919 219.304L60.0745 162.657L4.61775 127.647H73.1661L94.3487 71Z" fill="url(#paint1_diamond_177_2)"/>
</g>
<g filter="url(#filter3_f_177_2)">
<path d="M158.986 14.3467L180.169 70.9938H248.717L193.261 106.004L214.443 162.651L158.986 127.641L103.53 162.651L124.712 106.004L69.2554 70.9938H137.804L158.986 14.3467Z" fill="url(#paint2_diamond_177_2)"/>
</g>
<path d="M136.883 0L164.921 87.6142H255.655L182.25 141.763L210.288 229.377L136.883 175.228L63.4788 229.377L91.5168 141.763L18.1122 87.6142H108.845L136.883 0Z" fill="url(#paint3_diamond_177_2)"/>
<defs>
<filter id="filter0_f_177_2" x="22.1133" y="3.66357" width="229.694" height="234.516" filterUnits="userSpaceOnUse" color-interpolation-filters="sRGB">
<feFlood flood-opacity="0" result="BackgroundImageFix"/>
<feBlend mode="normal" in="SourceGraphic" in2="BackgroundImageFix" result="shape"/>
<feGaussianBlur stdDeviation="5" result="effect1_foregroundBlur_177_2"/>
</filter>
<filter id="filter1_f_177_2" x="76.9209" y="56.2559" width="187.462" height="156.304" filterUnits="userSpaceOnUse" color-interpolation-filters="sRGB">
<feFlood flood-opacity="0" result="BackgroundImageFix"/>
<feBlend mode="normal" in="SourceGraphic" in2="BackgroundImageFix" result="shape"/>
<feGaussianBlur stdDeviation="2" result="effect1_foregroundBlur_177_2"/>
</filter>
<filter id="filter2_f_177_2" x="0.618164" y="67" width="187.462" height="156.304" filterUnits="userSpaceOnUse" color-interpolation-filters="sRGB">
<feFlood flood-opacity="0" result="BackgroundImageFix"/>
<feBlend mode="normal" in="SourceGraphic" in2="BackgroundImageFix" result="shape"/>
<feGaussianBlur stdDeviation="2" result="effect1_foregroundBlur_177_2"/>
</filter>
<filter id="filter3_f_177_2" x="65.2559" y="10.3467" width="187.462" height="156.304" filterUnits="userSpaceOnUse" color-interpolation-filters="sRGB">
<feFlood flood-opacity="0" result="BackgroundImageFix"/>
<feBlend mode="normal" in="SourceGraphic" in2="BackgroundImageFix" result="shape"/>
<feGaussianBlur stdDeviation="2" result="effect1_foregroundBlur_177_2"/>
</filter>
<radialGradient id="paint0_diamond_177_2" cx="0" cy="0" r="1" gradientUnits="userSpaceOnUse" gradientTransform="translate(170.651 142.236) rotate(90) scale(81.9804 94.3487)">
<stop stop-color="#D71F56"/>
<stop offset="1" stop-color="#71102D"/>
</radialGradient>
<radialGradient id="paint1_diamond_177_2" cx="0" cy="0" r="1" gradientUnits="userSpaceOnUse" gradientTransform="translate(94.3487 152.98) rotate(90) scale(81.9804 94.3487)">
<stop stop-color="#5EF516"/>
<stop offset="1" stop-color="#378F0D"/>
</radialGradient>
<radialGradient id="paint2_diamond_177_2" cx="0" cy="0" r="1" gradientUnits="userSpaceOnUse" gradientTransform="translate(158.986 96.3271) rotate(90) scale(81.9804 94.3487)">
<stop stop-color="#E1FF2B"/>
<stop offset="1" stop-color="#87991A"/>
</radialGradient>
<radialGradient id="paint3_diamond_177_2" cx="0" cy="0" r="1" gradientUnits="userSpaceOnUse" gradientTransform="translate(136.883 100.426) rotate(90) scale(108.009 106.38)">
<stop stop-color="#0085FF"/>
<stop offset="0.257856" stop-color="#0073DD"/>
<stop offset="1" stop-color="#005099"/>
</radialGradient>
</defs>
</svg>
